<?xml version="1.0" encoding="UTF-8" standalone="no"?>
<!DOCTYPE svg PUBLIC "-//W3C//DTD SVG 1.1//EN"
 "http://www.w3.org/Graphics/SVG/1.1/DTD/svg11.dtd">
<!-- Generated by graphviz version 2.47.0 (20210316.0004)
 -->
<!-- Title: dependencies Pages: 1 -->
<svg width="590pt" height="284pt"
 viewBox="0.00 0.00 590.00 284.00" xmlns="http://www.w3.org/2000/svg" xmlns:xlink="http://www.w3.org/1999/xlink">
<g id="graph0" class="graph" transform="scale(1 1) rotate(0) translate(4 280)">
<title>dependencies</title>
<polygon fill="white" stroke="transparent" points="-4,4 -4,-280 586,-280 586,4 -4,4"/>
<text text-anchor="start" x="270.01" y="-42.4" font-family="Times-12" font-weight="bold" font-size="14.00">Legend</text>
<polygon fill="#ffffb3" stroke="transparent" points="57,-10 57,-30 77,-30 77,-10 57,-10"/>
<text text-anchor="start" x="80.63" y="-15.4" font-family="Times-12" font-size="14.00"> &#160;Declarations</text>
<polygon fill="#8dd3c7" stroke="transparent" points="170,-10 170,-30 190,-30 190,-10 170,-10"/>
<text text-anchor="start" x="193.73" y="-15.4" font-family="Times-12" font-size="14.00"> &#160;Module</text>
<polygon fill="#80b1d3" stroke="transparent" points="256,-10 256,-30 276,-30 276,-10 256,-10"/>
<text text-anchor="start" x="279.78" y="-15.4" font-family="Times-12" font-size="14.00"> &#160;Bootstrap</text>
<polygon fill="#fdb462" stroke="transparent" points="353,-10 353,-30 373,-30 373,-10 353,-10"/>
<text text-anchor="start" x="376.67" y="-15.4" font-family="Times-12" font-size="14.00"> &#160;Providers</text>
<polygon fill="#fb8072" stroke="transparent" points="449,-10 449,-30 469,-30 469,-10 449,-10"/>
<text text-anchor="start" x="472.73" y="-15.4" font-family="Times-12" font-size="14.00"> &#160;Exports</text>
<g id="clust1" class="cluster">
<title>cluster_AppModule</title>
<polygon fill="none" stroke="black" stroke-dasharray="1,5" points="8,-70 8,-268 574,-268 574,-70 8,-70"/>
</g>
<g id="clust8" class="cluster">
<title>cluster_AppModule_bootstrap</title>
<polygon fill="none" stroke="black" points="244,-208 244,-260 368,-260 368,-208 244,-208"/>
</g>
<g id="clust2" class="cluster">
<title>cluster_AppModule_declarations</title>
<polygon fill="none" stroke="black" points="168,-78 168,-130 566,-130 566,-78 168,-78"/>
</g>
<g id="clust6" class="cluster">
<title>cluster_AppModule_imports</title>
<polygon fill="none" stroke="black" points="16,-78 16,-130 160,-130 160,-78 16,-78"/>
</g>
<!-- AppComponent -->
<g id="node1" class="node">
<title>AppComponent</title>
<polygon fill="#ffffb3" stroke="black" points="557.94,-122 452.06,-122 452.06,-86 557.94,-86 557.94,-122"/>
<text text-anchor="middle" x="505" y="-99.8" font-family="Times,serif" font-size="14.00">AppComponent</text>
</g>
<!-- AppModule -->
<g id="node4" class="node">
<title>AppModule</title>
<polygon fill="#8dd3c7" stroke="black" points="347.66,-187 344.66,-191 323.66,-191 320.66,-187 264.34,-187 264.34,-151 347.66,-151 347.66,-187"/>
<text text-anchor="middle" x="306" y="-164.8" font-family="Times,serif" font-size="14.00">AppModule</text>
</g>
<!-- AppComponent&#45;&gt;AppModule -->
<g id="edge1" class="edge">
<title>AppComponent&#45;&gt;AppModule</title>
<path fill="none" stroke="black" d="M505,-122.11C505,-141.34 505,-169 505,-169 505,-169 357.72,-169 357.72,-169"/>
<polygon fill="black" stroke="black" points="357.72,-165.5 347.72,-169 357.72,-172.5 357.72,-165.5"/>
</g>
<!-- FooterComponent -->
<g id="node2" class="node">
<title>FooterComponent</title>
<polygon fill="#ffffb3" stroke="black" points="433.88,-122 316.12,-122 316.12,-86 433.88,-86 433.88,-122"/>
<text text-anchor="middle" x="375" y="-99.8" font-family="Times,serif" font-size="14.00">FooterComponent</text>
</g>
<!-- FooterComponent&#45;&gt;AppModule -->
<g id="edge2" class="edge">
<title>FooterComponent&#45;&gt;AppModule</title>
<path fill="none" stroke="black" d="M331.94,-122.11C331.94,-122.11 331.94,-140.99 331.94,-140.99"/>
<polygon fill="black" stroke="black" points="328.44,-140.99 331.94,-150.99 335.44,-140.99 328.44,-140.99"/>
</g>
<!-- NavbarComponent -->
<g id="node3" class="node">
<title>NavbarComponent</title>
<polygon fill="#ffffb3" stroke="black" points="298.03,-122 175.97,-122 175.97,-86 298.03,-86 298.03,-122"/>
<text text-anchor="middle" x="237" y="-99.8" font-family="Times,serif" font-size="14.00">NavbarComponent</text>
</g>
<!-- NavbarComponent&#45;&gt;AppModule -->
<g id="edge3" class="edge">
<title>NavbarComponent&#45;&gt;AppModule</title>
<path fill="none" stroke="black" d="M281.22,-122.11C281.22,-122.11 281.22,-140.99 281.22,-140.99"/>
<polygon fill="black" stroke="black" points="277.72,-140.99 281.22,-150.99 284.72,-140.99 277.72,-140.99"/>
</g>
<!-- AppComponent  -->
<g id="node6" class="node">
<title>AppComponent </title>
<polygon fill="#80b1d3" stroke="black" points="360.44,-252 251.56,-252 251.56,-216 360.44,-216 360.44,-252"/>
<text text-anchor="middle" x="306" y="-229.8" font-family="Times,serif" font-size="14.00">AppComponent </text>
</g>
<!-- AppModule&#45;&gt;AppComponent  -->
<g id="edge5" class="edge">
<title>AppModule&#45;&gt;AppComponent </title>
<path fill="none" stroke="black" stroke-dasharray="1,5" d="M306,-187.11C306,-187.11 306,-205.99 306,-205.99"/>
<polygon fill="black" stroke="black" points="302.5,-205.99 306,-215.99 309.5,-205.99 302.5,-205.99"/>
</g>
<!-- AppRoutingModule -->
<g id="node5" class="node">
<title>AppRoutingModule</title>
<polygon fill="#8dd3c7" stroke="black" points="152.27,-122 149.27,-126 128.27,-126 125.27,-122 23.73,-122 23.73,-86 152.27,-86 152.27,-122"/>
<text text-anchor="middle" x="88" y="-99.8" font-family="Times,serif" font-size="14.00">AppRoutingModule</text>
</g>
<!-- AppRoutingModule&#45;&gt;AppModule -->
<g id="edge4" class="edge">
<title>AppRoutingModule&#45;&gt;AppModule</title>
<path fill="none" stroke="black" d="M88,-122.11C88,-141.34 88,-169 88,-169 88,-169 254.23,-169 254.23,-169"/>
<polygon fill="black" stroke="black" points="254.23,-172.5 264.23,-169 254.23,-165.5 254.23,-172.5"/>
</g>
</g>
</svg>
