<?xml version="1.0" encoding="UTF-8" standalone="no"?>
<!DOCTYPE svg PUBLIC "-//W3C//DTD SVG 1.1//EN"
 "http://www.w3.org/Graphics/SVG/1.1/DTD/svg11.dtd">
<!-- Generated by graphviz version 2.47.0 (20210316.0004)
 -->
<!-- Title: dependencies Pages: 1 -->
<svg width="504pt" height="211pt"
 viewBox="0.00 0.00 504.00 211.00" xmlns="http://www.w3.org/2000/svg" xmlns:xlink="http://www.w3.org/1999/xlink">
<g id="graph0" class="graph" transform="scale(1 1) rotate(0) translate(4 207)">
<title>dependencies</title>
<polygon fill="white" stroke="transparent" points="-4,4 -4,-207 500,-207 500,4 -4,4"/>
<text text-anchor="start" x="227.01" y="-42.4" font-family="Times-12" font-weight="bold" font-size="14.00">Legend</text>
<polygon fill="#ffffb3" stroke="transparent" points="14,-10 14,-30 34,-30 34,-10 14,-10"/>
<text text-anchor="start" x="37.63" y="-15.4" font-family="Times-12" font-size="14.00"> &#160;Declarations</text>
<polygon fill="#8dd3c7" stroke="transparent" points="127,-10 127,-30 147,-30 147,-10 127,-10"/>
<text text-anchor="start" x="150.73" y="-15.4" font-family="Times-12" font-size="14.00"> &#160;Module</text>
<polygon fill="#80b1d3" stroke="transparent" points="213,-10 213,-30 233,-30 233,-10 213,-10"/>
<text text-anchor="start" x="236.78" y="-15.4" font-family="Times-12" font-size="14.00"> &#160;Bootstrap</text>
<polygon fill="#fdb462" stroke="transparent" points="310,-10 310,-30 330,-30 330,-10 310,-10"/>
<text text-anchor="start" x="333.67" y="-15.4" font-family="Times-12" font-size="14.00"> &#160;Providers</text>
<polygon fill="#fb8072" stroke="transparent" points="406,-10 406,-30 426,-30 426,-10 406,-10"/>
<text text-anchor="start" x="429.73" y="-15.4" font-family="Times-12" font-size="14.00"> &#160;Exports</text>
<g id="clust1" class="cluster">
<title>cluster_UsuariosModule</title>
<polygon fill="none" stroke="black" stroke-dasharray="1,5" points="77,-70 77,-195 419,-195 419,-70 77,-70"/>
</g>
<g id="clust4" class="cluster">
<title>cluster_UsuariosModule_imports</title>
<polygon fill="none" stroke="black" points="241,-78 241,-130 411,-130 411,-78 241,-78"/>
</g>
<g id="clust2" class="cluster">
<title>cluster_UsuariosModule_declarations</title>
<polygon fill="none" stroke="black" points="85,-78 85,-130 233,-130 233,-78 85,-78"/>
</g>
<!-- UsuariosComponent -->
<g id="node1" class="node">
<title>UsuariosComponent</title>
<polygon fill="#ffffb3" stroke="black" points="224.59,-122 93.41,-122 93.41,-86 224.59,-86 224.59,-122"/>
<text text-anchor="middle" x="159" y="-99.8" font-family="Times,serif" font-size="14.00">UsuariosComponent</text>
</g>
<!-- UsuariosModule -->
<g id="node2" class="node">
<title>UsuariosModule</title>
<polygon fill="#8dd3c7" stroke="black" points="296.81,-187 293.81,-191 272.81,-191 269.81,-187 187.19,-187 187.19,-151 296.81,-151 296.81,-187"/>
<text text-anchor="middle" x="242" y="-164.8" font-family="Times,serif" font-size="14.00">UsuariosModule</text>
</g>
<!-- UsuariosComponent&#45;&gt;UsuariosModule -->
<g id="edge1" class="edge">
<title>UsuariosComponent&#45;&gt;UsuariosModule</title>
<path fill="none" stroke="black" d="M205.95,-122.11C205.95,-122.11 205.95,-140.99 205.95,-140.99"/>
<polygon fill="black" stroke="black" points="202.45,-140.99 205.95,-150.99 209.45,-140.99 202.45,-140.99"/>
</g>
<!-- UsuariosRoutingModule -->
<g id="node3" class="node">
<title>UsuariosRoutingModule</title>
<polygon fill="#8dd3c7" stroke="black" points="403.43,-122 400.43,-126 379.43,-126 376.43,-122 248.57,-122 248.57,-86 403.43,-86 403.43,-122"/>
<text text-anchor="middle" x="326" y="-99.8" font-family="Times,serif" font-size="14.00">UsuariosRoutingModule</text>
</g>
<!-- UsuariosRoutingModule&#45;&gt;UsuariosModule -->
<g id="edge2" class="edge">
<title>UsuariosRoutingModule&#45;&gt;UsuariosModule</title>
<path fill="none" stroke="black" d="M272.72,-122.11C272.72,-122.11 272.72,-140.99 272.72,-140.99"/>
<polygon fill="black" stroke="black" points="269.22,-140.99 272.72,-150.99 276.22,-140.99 269.22,-140.99"/>
</g>
</g>
</svg>
