<?xml version="1.0" encoding="UTF-8" standalone="no"?>
<!DOCTYPE svg PUBLIC "-//W3C//DTD SVG 1.1//EN"
 "http://www.w3.org/Graphics/SVG/1.1/DTD/svg11.dtd">
<!-- Generated by graphviz version 2.47.0 (20210316.0004)
 -->
<!-- Title: dependencies Pages: 1 -->
<svg width="2424pt" height="284pt"
 viewBox="0.00 0.00 2424.00 284.00" xmlns="http://www.w3.org/2000/svg" xmlns:xlink="http://www.w3.org/1999/xlink">
<g id="graph0" class="graph" transform="scale(1 1) rotate(0) translate(4 280)">
<title>dependencies</title>
<polygon fill="white" stroke="transparent" points="-4,4 -4,-280 2420,-280 2420,4 -4,4"/>
<text text-anchor="start" x="1187.01" y="-42.4" font-family="Times-12" font-weight="bold" font-size="14.00">Legend</text>
<polygon fill="#ffffb3" stroke="transparent" points="974,-10 974,-30 994,-30 994,-10 974,-10"/>
<text text-anchor="start" x="997.63" y="-15.4" font-family="Times-12" font-size="14.00"> &#160;Declarations</text>
<polygon fill="#8dd3c7" stroke="transparent" points="1087,-10 1087,-30 1107,-30 1107,-10 1087,-10"/>
<text text-anchor="start" x="1110.73" y="-15.4" font-family="Times-12" font-size="14.00"> &#160;Module</text>
<polygon fill="#80b1d3" stroke="transparent" points="1173,-10 1173,-30 1193,-30 1193,-10 1173,-10"/>
<text text-anchor="start" x="1196.78" y="-15.4" font-family="Times-12" font-size="14.00"> &#160;Bootstrap</text>
<polygon fill="#fdb462" stroke="transparent" points="1270,-10 1270,-30 1290,-30 1290,-10 1270,-10"/>
<text text-anchor="start" x="1293.67" y="-15.4" font-family="Times-12" font-size="14.00"> &#160;Providers</text>
<polygon fill="#fb8072" stroke="transparent" points="1366,-10 1366,-30 1386,-30 1386,-10 1366,-10"/>
<text text-anchor="start" x="1389.73" y="-15.4" font-family="Times-12" font-size="14.00"> &#160;Exports</text>
<g id="clust1" class="cluster">
<title>cluster_AppModule</title>
<polygon fill="none" stroke="black" stroke-dasharray="1,5" points="8,-70 8,-268 574,-268 574,-70 8,-70"/>
</g>
<g id="clust2" class="cluster">
<title>cluster_AppModule_declarations</title>
<polygon fill="none" stroke="black" points="168,-78 168,-130 566,-130 566,-78 168,-78"/>
</g>
<g id="clust6" class="cluster">
<title>cluster_AppModule_imports</title>
<polygon fill="none" stroke="black" points="16,-78 16,-130 160,-130 160,-78 16,-78"/>
</g>
<g id="clust8" class="cluster">
<title>cluster_AppModule_bootstrap</title>
<polygon fill="none" stroke="black" points="244,-208 244,-260 368,-260 368,-208 244,-208"/>
</g>
<g id="clust16" class="cluster">
<title>cluster_ComentariosModule</title>
<polygon fill="none" stroke="black" stroke-dasharray="1,5" points="582,-70 582,-195 966,-195 966,-70 582,-70"/>
</g>
<g id="clust17" class="cluster">
<title>cluster_ComentariosModule_declarations</title>
<polygon fill="none" stroke="black" points="790,-78 790,-130 958,-130 958,-78 790,-78"/>
</g>
<g id="clust19" class="cluster">
<title>cluster_ComentariosModule_imports</title>
<polygon fill="none" stroke="black" points="590,-78 590,-130 782,-130 782,-78 590,-78"/>
</g>
<g id="clust29" class="cluster">
<title>cluster_ProductosModule</title>
<polygon fill="none" stroke="black" stroke-dasharray="1,5" points="974,-70 974,-195 1328,-195 1328,-70 974,-70"/>
</g>
<g id="clust30" class="cluster">
<title>cluster_ProductosModule_declarations</title>
<polygon fill="none" stroke="black" points="1166,-78 1166,-130 1320,-130 1320,-78 1166,-78"/>
</g>
<g id="clust32" class="cluster">
<title>cluster_ProductosModule_imports</title>
<polygon fill="none" stroke="black" points="982,-78 982,-130 1158,-130 1158,-78 982,-78"/>
</g>
<g id="clust42" class="cluster">
<title>cluster_PublicacionesModule</title>
<polygon fill="none" stroke="black" stroke-dasharray="1,5" points="1336,-70 1336,-195 1734,-195 1734,-70 1336,-70"/>
</g>
<g id="clust43" class="cluster">
<title>cluster_PublicacionesModule_declarations</title>
<polygon fill="none" stroke="black" points="1550,-78 1550,-130 1726,-130 1726,-78 1550,-78"/>
</g>
<g id="clust45" class="cluster">
<title>cluster_PublicacionesModule_imports</title>
<polygon fill="none" stroke="black" points="1344,-78 1344,-130 1542,-130 1542,-78 1344,-78"/>
</g>
<g id="clust55" class="cluster">
<title>cluster_TareasModule</title>
<polygon fill="none" stroke="black" stroke-dasharray="1,5" points="1742,-70 1742,-195 2058,-195 2058,-70 1742,-70"/>
</g>
<g id="clust56" class="cluster">
<title>cluster_TareasModule_declarations</title>
<polygon fill="none" stroke="black" points="1916,-78 1916,-130 2050,-130 2050,-78 1916,-78"/>
</g>
<g id="clust58" class="cluster">
<title>cluster_TareasModule_imports</title>
<polygon fill="none" stroke="black" points="1750,-78 1750,-130 1908,-130 1908,-78 1750,-78"/>
</g>
<g id="clust68" class="cluster">
<title>cluster_UsuariosModule</title>
<polygon fill="none" stroke="black" stroke-dasharray="1,5" points="2066,-70 2066,-195 2408,-195 2408,-70 2066,-70"/>
</g>
<g id="clust69" class="cluster">
<title>cluster_UsuariosModule_declarations</title>
<polygon fill="none" stroke="black" points="2252,-78 2252,-130 2400,-130 2400,-78 2252,-78"/>
</g>
<g id="clust71" class="cluster">
<title>cluster_UsuariosModule_imports</title>
<polygon fill="none" stroke="black" points="2074,-78 2074,-130 2244,-130 2244,-78 2074,-78"/>
</g>
<!-- AppComponent -->
<g id="node1" class="node">
<title>AppComponent</title>
<polygon fill="#ffffb3" stroke="black" points="557.94,-122 452.06,-122 452.06,-86 557.94,-86 557.94,-122"/>
<text text-anchor="middle" x="505" y="-99.8" font-family="Times,serif" font-size="14.00">AppComponent</text>
</g>
<!-- AppModule -->
<g id="node4" class="node">
<title>AppModule</title>
<polygon fill="#8dd3c7" stroke="black" points="347.66,-187 344.66,-191 323.66,-191 320.66,-187 264.34,-187 264.34,-151 347.66,-151 347.66,-187"/>
<text text-anchor="middle" x="306" y="-164.8" font-family="Times,serif" font-size="14.00">AppModule</text>
</g>
<!-- AppComponent&#45;&gt;AppModule -->
<g id="edge1" class="edge">
<title>AppComponent&#45;&gt;AppModule</title>
<path fill="none" stroke="black" d="M505,-122.11C505,-141.34 505,-169 505,-169 505,-169 357.72,-169 357.72,-169"/>
<polygon fill="black" stroke="black" points="357.72,-165.5 347.72,-169 357.72,-172.5 357.72,-165.5"/>
</g>
<!-- FooterComponent -->
<g id="node2" class="node">
<title>FooterComponent</title>
<polygon fill="#ffffb3" stroke="black" points="433.88,-122 316.12,-122 316.12,-86 433.88,-86 433.88,-122"/>
<text text-anchor="middle" x="375" y="-99.8" font-family="Times,serif" font-size="14.00">FooterComponent</text>
</g>
<!-- FooterComponent&#45;&gt;AppModule -->
<g id="edge2" class="edge">
<title>FooterComponent&#45;&gt;AppModule</title>
<path fill="none" stroke="black" d="M331.94,-122.11C331.94,-122.11 331.94,-140.99 331.94,-140.99"/>
<polygon fill="black" stroke="black" points="328.44,-140.99 331.94,-150.99 335.44,-140.99 328.44,-140.99"/>
</g>
<!-- NavbarComponent -->
<g id="node3" class="node">
<title>NavbarComponent</title>
<polygon fill="#ffffb3" stroke="black" points="298.03,-122 175.97,-122 175.97,-86 298.03,-86 298.03,-122"/>
<text text-anchor="middle" x="237" y="-99.8" font-family="Times,serif" font-size="14.00">NavbarComponent</text>
</g>
<!-- NavbarComponent&#45;&gt;AppModule -->
<g id="edge3" class="edge">
<title>NavbarComponent&#45;&gt;AppModule</title>
<path fill="none" stroke="black" d="M281.22,-122.11C281.22,-122.11 281.22,-140.99 281.22,-140.99"/>
<polygon fill="black" stroke="black" points="277.72,-140.99 281.22,-150.99 284.72,-140.99 277.72,-140.99"/>
</g>
<!-- AppComponent  -->
<g id="node6" class="node">
<title>AppComponent </title>
<polygon fill="#80b1d3" stroke="black" points="360.44,-252 251.56,-252 251.56,-216 360.44,-216 360.44,-252"/>
<text text-anchor="middle" x="306" y="-229.8" font-family="Times,serif" font-size="14.00">AppComponent </text>
</g>
<!-- AppModule&#45;&gt;AppComponent  -->
<g id="edge5" class="edge">
<title>AppModule&#45;&gt;AppComponent </title>
<path fill="none" stroke="black" stroke-dasharray="1,5" d="M306,-187.11C306,-187.11 306,-205.99 306,-205.99"/>
<polygon fill="black" stroke="black" points="302.5,-205.99 306,-215.99 309.5,-205.99 302.5,-205.99"/>
</g>
<!-- AppRoutingModule -->
<g id="node5" class="node">
<title>AppRoutingModule</title>
<polygon fill="#8dd3c7" stroke="black" points="152.27,-122 149.27,-126 128.27,-126 125.27,-122 23.73,-122 23.73,-86 152.27,-86 152.27,-122"/>
<text text-anchor="middle" x="88" y="-99.8" font-family="Times,serif" font-size="14.00">AppRoutingModule</text>
</g>
<!-- AppRoutingModule&#45;&gt;AppModule -->
<g id="edge4" class="edge">
<title>AppRoutingModule&#45;&gt;AppModule</title>
<path fill="none" stroke="black" d="M88,-122.11C88,-141.34 88,-169 88,-169 88,-169 254.23,-169 254.23,-169"/>
<polygon fill="black" stroke="black" points="254.23,-172.5 264.23,-169 254.23,-165.5 254.23,-172.5"/>
</g>
<!-- ComentariosComponent -->
<g id="node7" class="node">
<title>ComentariosComponent</title>
<polygon fill="#ffffb3" stroke="black" points="950.38,-122 797.62,-122 797.62,-86 950.38,-86 950.38,-122"/>
<text text-anchor="middle" x="874" y="-99.8" font-family="Times,serif" font-size="14.00">ComentariosComponent</text>
</g>
<!-- ComentariosModule -->
<g id="node8" class="node">
<title>ComentariosModule</title>
<polygon fill="#8dd3c7" stroke="black" points="845.59,-187 842.59,-191 821.59,-191 818.59,-187 714.41,-187 714.41,-151 845.59,-151 845.59,-187"/>
<text text-anchor="middle" x="780" y="-164.8" font-family="Times,serif" font-size="14.00">ComentariosModule</text>
</g>
<!-- ComentariosComponent&#45;&gt;ComentariosModule -->
<g id="edge6" class="edge">
<title>ComentariosComponent&#45;&gt;ComentariosModule</title>
<path fill="none" stroke="black" d="M821.55,-122.11C821.55,-122.11 821.55,-140.99 821.55,-140.99"/>
<polygon fill="black" stroke="black" points="818.05,-140.99 821.55,-150.99 825.05,-140.99 818.05,-140.99"/>
</g>
<!-- ComentariosRoutingModule -->
<g id="node9" class="node">
<title>ComentariosRoutingModule</title>
<polygon fill="#8dd3c7" stroke="black" points="774.21,-122 771.21,-126 750.21,-126 747.21,-122 597.79,-122 597.79,-86 774.21,-86 774.21,-122"/>
<text text-anchor="middle" x="686" y="-99.8" font-family="Times,serif" font-size="14.00">ComentariosRoutingModule</text>
</g>
<!-- ComentariosRoutingModule&#45;&gt;ComentariosModule -->
<g id="edge7" class="edge">
<title>ComentariosRoutingModule&#45;&gt;ComentariosModule</title>
<path fill="none" stroke="black" d="M744.28,-122.11C744.28,-122.11 744.28,-140.99 744.28,-140.99"/>
<polygon fill="black" stroke="black" points="740.78,-140.99 744.28,-150.99 747.78,-140.99 740.78,-140.99"/>
</g>
<!-- ProductosComponent -->
<g id="node10" class="node">
<title>ProductosComponent</title>
<polygon fill="#ffffb3" stroke="black" points="1311.83,-122 1174.17,-122 1174.17,-86 1311.83,-86 1311.83,-122"/>
<text text-anchor="middle" x="1243" y="-99.8" font-family="Times,serif" font-size="14.00">ProductosComponent</text>
</g>
<!-- ProductosModule -->
<g id="node11" class="node">
<title>ProductosModule</title>
<polygon fill="#8dd3c7" stroke="black" points="1213.54,-187 1210.54,-191 1189.54,-191 1186.54,-187 1098.46,-187 1098.46,-151 1213.54,-151 1213.54,-187"/>
<text text-anchor="middle" x="1156" y="-164.8" font-family="Times,serif" font-size="14.00">ProductosModule</text>
</g>
<!-- ProductosComponent&#45;&gt;ProductosModule -->
<g id="edge8" class="edge">
<title>ProductosComponent&#45;&gt;ProductosModule</title>
<path fill="none" stroke="black" d="M1194.05,-122.11C1194.05,-122.11 1194.05,-140.99 1194.05,-140.99"/>
<polygon fill="black" stroke="black" points="1190.55,-140.99 1194.05,-150.99 1197.55,-140.99 1190.55,-140.99"/>
</g>
<!-- ProductosRoutingModule -->
<g id="node12" class="node">
<title>ProductosRoutingModule</title>
<polygon fill="#8dd3c7" stroke="black" points="1150.16,-122 1147.16,-126 1126.16,-126 1123.16,-122 989.84,-122 989.84,-86 1150.16,-86 1150.16,-122"/>
<text text-anchor="middle" x="1070" y="-99.8" font-family="Times,serif" font-size="14.00">ProductosRoutingModule</text>
</g>
<!-- ProductosRoutingModule&#45;&gt;ProductosModule -->
<g id="edge9" class="edge">
<title>ProductosRoutingModule&#45;&gt;ProductosModule</title>
<path fill="none" stroke="black" d="M1124.28,-122.11C1124.28,-122.11 1124.28,-140.99 1124.28,-140.99"/>
<polygon fill="black" stroke="black" points="1120.78,-140.99 1124.28,-150.99 1127.78,-140.99 1120.78,-140.99"/>
</g>
<!-- PublicacionesComponent -->
<g id="node13" class="node">
<title>PublicacionesComponent</title>
<polygon fill="#ffffb3" stroke="black" points="1717.59,-122 1558.41,-122 1558.41,-86 1717.59,-86 1717.59,-122"/>
<text text-anchor="middle" x="1638" y="-99.8" font-family="Times,serif" font-size="14.00">PublicacionesComponent</text>
</g>
<!-- PublicacionesModule -->
<g id="node14" class="node">
<title>PublicacionesModule</title>
<polygon fill="#8dd3c7" stroke="black" points="1608.81,-187 1605.81,-191 1584.81,-191 1581.81,-187 1471.19,-187 1471.19,-151 1608.81,-151 1608.81,-187"/>
<text text-anchor="middle" x="1540" y="-164.8" font-family="Times,serif" font-size="14.00">PublicacionesModule</text>
</g>
<!-- PublicacionesComponent&#45;&gt;PublicacionesModule -->
<g id="edge10" class="edge">
<title>PublicacionesComponent&#45;&gt;PublicacionesModule</title>
<path fill="none" stroke="black" d="M1583.55,-122.11C1583.55,-122.11 1583.55,-140.99 1583.55,-140.99"/>
<polygon fill="black" stroke="black" points="1580.05,-140.99 1583.55,-150.99 1587.05,-140.99 1580.05,-140.99"/>
</g>
<!-- PublicacionesRoutingModule -->
<g id="node15" class="node">
<title>PublicacionesRoutingModule</title>
<polygon fill="#8dd3c7" stroke="black" points="1534.43,-122 1531.43,-126 1510.43,-126 1507.43,-122 1351.57,-122 1351.57,-86 1534.43,-86 1534.43,-122"/>
<text text-anchor="middle" x="1443" y="-99.8" font-family="Times,serif" font-size="14.00">PublicacionesRoutingModule</text>
</g>
<!-- PublicacionesRoutingModule&#45;&gt;PublicacionesModule -->
<g id="edge11" class="edge">
<title>PublicacionesRoutingModule&#45;&gt;PublicacionesModule</title>
<path fill="none" stroke="black" d="M1502.78,-122.11C1502.78,-122.11 1502.78,-140.99 1502.78,-140.99"/>
<polygon fill="black" stroke="black" points="1499.28,-140.99 1502.78,-150.99 1506.28,-140.99 1499.28,-140.99"/>
</g>
<!-- TareasComponent -->
<g id="node16" class="node">
<title>TareasComponent</title>
<polygon fill="#ffffb3" stroke="black" points="2042.13,-122 1923.87,-122 1923.87,-86 2042.13,-86 2042.13,-122"/>
<text text-anchor="middle" x="1983" y="-99.8" font-family="Times,serif" font-size="14.00">TareasComponent</text>
</g>
<!-- TareasModule -->
<g id="node17" class="node">
<title>TareasModule</title>
<polygon fill="#8dd3c7" stroke="black" points="1954.35,-187 1951.35,-191 1930.35,-191 1927.35,-187 1857.65,-187 1857.65,-151 1954.35,-151 1954.35,-187"/>
<text text-anchor="middle" x="1906" y="-164.8" font-family="Times,serif" font-size="14.00">TareasModule</text>
</g>
<!-- TareasComponent&#45;&gt;TareasModule -->
<g id="edge12" class="edge">
<title>TareasComponent&#45;&gt;TareasModule</title>
<path fill="none" stroke="black" d="M1939.05,-122.11C1939.05,-122.11 1939.05,-140.99 1939.05,-140.99"/>
<polygon fill="black" stroke="black" points="1935.55,-140.99 1939.05,-150.99 1942.55,-140.99 1935.55,-140.99"/>
</g>
<!-- TareasRoutingModule -->
<g id="node18" class="node">
<title>TareasRoutingModule</title>
<polygon fill="#8dd3c7" stroke="black" points="1899.97,-122 1896.97,-126 1875.97,-126 1872.97,-122 1758.03,-122 1758.03,-86 1899.97,-86 1899.97,-122"/>
<text text-anchor="middle" x="1829" y="-99.8" font-family="Times,serif" font-size="14.00">TareasRoutingModule</text>
</g>
<!-- TareasRoutingModule&#45;&gt;TareasModule -->
<g id="edge13" class="edge">
<title>TareasRoutingModule&#45;&gt;TareasModule</title>
<path fill="none" stroke="black" d="M1878.78,-122.11C1878.78,-122.11 1878.78,-140.99 1878.78,-140.99"/>
<polygon fill="black" stroke="black" points="1875.28,-140.99 1878.78,-150.99 1882.28,-140.99 1875.28,-140.99"/>
</g>
<!-- UsuariosComponent -->
<g id="node19" class="node">
<title>UsuariosComponent</title>
<polygon fill="#ffffb3" stroke="black" points="2391.59,-122 2260.41,-122 2260.41,-86 2391.59,-86 2391.59,-122"/>
<text text-anchor="middle" x="2326" y="-99.8" font-family="Times,serif" font-size="14.00">UsuariosComponent</text>
</g>
<!-- UsuariosModule -->
<g id="node20" class="node">
<title>UsuariosModule</title>
<polygon fill="#8dd3c7" stroke="black" points="2296.81,-187 2293.81,-191 2272.81,-191 2269.81,-187 2187.19,-187 2187.19,-151 2296.81,-151 2296.81,-187"/>
<text text-anchor="middle" x="2242" y="-164.8" font-family="Times,serif" font-size="14.00">UsuariosModule</text>
</g>
<!-- UsuariosComponent&#45;&gt;UsuariosModule -->
<g id="edge14" class="edge">
<title>UsuariosComponent&#45;&gt;UsuariosModule</title>
<path fill="none" stroke="black" d="M2278.55,-122.11C2278.55,-122.11 2278.55,-140.99 2278.55,-140.99"/>
<polygon fill="black" stroke="black" points="2275.05,-140.99 2278.55,-150.99 2282.05,-140.99 2275.05,-140.99"/>
</g>
<!-- UsuariosRoutingModule -->
<g id="node21" class="node">
<title>UsuariosRoutingModule</title>
<polygon fill="#8dd3c7" stroke="black" points="2236.43,-122 2233.43,-126 2212.43,-126 2209.43,-122 2081.57,-122 2081.57,-86 2236.43,-86 2236.43,-122"/>
<text text-anchor="middle" x="2159" y="-99.8" font-family="Times,serif" font-size="14.00">UsuariosRoutingModule</text>
</g>
<!-- UsuariosRoutingModule&#45;&gt;UsuariosModule -->
<g id="edge15" class="edge">
<title>UsuariosRoutingModule&#45;&gt;UsuariosModule</title>
<path fill="none" stroke="black" d="M2211.78,-122.11C2211.78,-122.11 2211.78,-140.99 2211.78,-140.99"/>
<polygon fill="black" stroke="black" points="2208.28,-140.99 2211.78,-150.99 2215.28,-140.99 2208.28,-140.99"/>
</g>
</g>
</svg>
